<svg xmlns="http://www.w3.org/2000/svg" viewBox="0 0 1440 320">
  <path fill="#fff" fill-opacity="0.2"
        d="M0,64L26.7,69.3C53.3,75,107,85,160,117.3C213.3,149,267,203,320,218.7C373.3,235,427,213,480,218.7C533.3,224,587,256,640,229.3C693.3,203,747,117,800,117.3C853.3,117,907,203,960,229.3C1013.3,256,1067,224,1120,197.3C1173.3,171,1227,149,1280,154.7C1333.3,160,1387,192,1413,208L1440,224L1440,320L1413.3,320C1386.7,320,1333,320,1280,320C1226.7,320,1173,320,1120,320C1066.7,320,1013,320,960,320C906.7,320,853,320,800,320C746.7,320,693,320,640,320C586.7,320,533,320,480,320C426.7,320,373,320,320,320C266.7,320,213,320,160,320C106.7,320,53,320,27,320L0,320Z"></path>
</svg>
