<svg xmlns="http://www.w3.org/2000/svg" viewBox="0 0 1440 320">
  <path fill="#fff" fill-opacity="0.5"
        d="M0,0L30,5.3C60,11,120,21,180,37.3C240,53,300,75,360,101.3C420,128,480,160,540,149.3C600,139,660,85,720,64C780,43,840,53,900,74.7C960,96,1020,128,1080,144C1140,160,1200,160,1260,138.7C1320,117,1380,75,1410,53.3L1440,32L1440,320L1410,320C1380,320,1320,320,1260,320C1200,320,1140,320,1080,320C1020,320,960,320,900,320C840,320,780,320,720,320C660,320,600,320,540,320C480,320,420,320,360,320C300,320,240,320,180,320C120,320,60,320,30,320L0,320Z"></path>
</svg>
