<svg data-v-fde0c5aa="" xmlns="http://www.w3.org/2000/svg" viewBox="0 0 300 300" class="iconAbove"><!----><defs data-v-fde0c5aa=""><!----></defs><rect data-v-fde0c5aa="" fill="#4E81EB" x="0" y="0" width="300px" height="300px" class="logo-background-square"></rect><defs data-v-fde0c5aa=""><!----></defs><g data-v-fde0c5aa="" id="78549e8d-9dc6-4a39-8135-ec9faf2dad8b" fill="#fff" transform="matrix(4.847612380981445,0,0,4.847612380981445,2.947674649197965,178.07535337674415)"><path d="M0.85 5.11L0.85 3.71L2.11 3.71L2.11 5.11L0.85 5.11ZM0.85 13.51L0.85 6.65L2.11 6.65L2.11 13.51L0.85 13.51ZM7.21 6.51L7.21 6.51Q10.01 6.51 10.01 9.73L10.01 9.73L10.01 13.51L8.75 13.51L8.75 9.73L8.75 9.73Q8.75 8.62 8.34 8.13L8.34 8.13L8.34 8.13Q7.92 7.63 6.96 7.63L6.96 7.63L6.96 7.63Q6.34 7.63 5.84 7.85L5.84 7.85L5.84 7.85Q5.33 8.08 5.08 8.53L5.08 8.53L5.08 13.51L3.82 13.51L3.82 6.65L4.80 6.65L4.94 7.38L4.94 7.38Q5.49 6.89 6.04 6.70L6.04 6.70L6.04 6.70Q6.59 6.51 7.21 6.51L7.21 6.51ZM14.71 13.71L14.71 13.71Q13.85 13.71 12.95 13.52L12.95 13.52L12.95 13.52Q12.05 13.33 11.51 13.08L11.51 13.08L11.69 11.66L11.69 11.66Q12.39 12.00 13.27 12.25L13.27 12.25L13.27 12.25Q14.15 12.50 15.02 12.50L15.02 12.50L15.02 12.50Q16.00 12.50 16.54 12.14L16.54 12.14L16.54 12.14Q17.08 11.79 17.08 11.07L17.08 11.07L17.08 11.07Q17.08 10.54 16.81 10.18L16.81 10.18L16.81 10.18Q16.53 9.83 16.01 9.58L16.01 9.58L16.01 9.58Q15.48 9.34 14.55 9.06L14.55 9.06L14.55 9.06Q13.59 8.78 12.96 8.46L12.96 8.46L12.96 8.46Q12.33 8.13 11.95 7.57L11.95 7.57L11.95 7.57Q11.56 7.01 11.56 6.16L11.56 6.16L11.56 6.16Q11.56 4.97 12.48 4.24L12.48 4.24L12.48 4.24Q13.40 3.51 15.06 3.51L15.06 3.51L15.06 3.51Q15.96 3.51 16.77 3.71L16.77 3.71L16.77 3.71Q17.57 3.91 18.17 4.19L18.17 4.19L18.03 5.60L18.03 5.60Q17.25 5.14 16.52 4.93L16.52 4.93L16.52 4.93Q15.79 4.72 15.01 4.72L15.01 4.72L15.01 4.72Q14.10 4.72 13.56 5.05L13.56 5.05L13.56 5.05Q13.02 5.39 13.02 6.09L13.02 6.09L13.02 6.09Q13.02 6.57 13.27 6.87L13.27 6.87L13.27 6.87Q13.51 7.18 13.97 7.40L13.97 7.40L13.97 7.40Q14.43 7.62 15.26 7.87L15.26 7.87L15.26 7.87Q16.91 8.37 17.72 9.06L17.72 9.06L17.72 9.06Q18.54 9.76 18.54 10.98L18.54 10.98L18.54 10.98Q18.54 12.26 17.57 12.98L17.57 12.98L17.57 12.98Q16.60 13.71 14.71 13.71L14.71 13.71ZM22.82 13.65L22.82 13.65Q21.77 13.65 21 13.18L21 13.18L21 13.18Q20.23 12.71 19.82 11.90L19.82 11.90L19.82 11.90Q19.42 11.09 19.42 10.08L19.42 10.08L19.42 10.08Q19.42 9.07 19.82 8.26L19.82 8.26L19.82 8.26Q20.23 7.45 21 6.98L21 6.98L21 6.98Q21.77 6.51 22.82 6.51L22.82 6.51L22.82 6.51Q23.86 6.51 24.63 6.98L24.63 6.98L24.63 6.98Q25.41 7.45 25.82 8.26L25.82 8.26L25.82 8.26Q26.22 9.07 26.22 10.08L26.22 10.08L26.22 10.08Q26.22 11.09 25.82 11.90L25.82 11.90L25.82 11.90Q25.41 12.71 24.63 13.18L24.63 13.18L24.63 13.18Q23.86 13.65 22.82 13.65L22.82 13.65ZM22.82 12.53L22.82 12.53Q23.83 12.53 24.38 11.89L24.38 11.89L24.38 11.89Q24.93 11.24 24.93 10.08L24.93 10.08L24.93 10.08Q24.93 8.92 24.38 8.27L24.38 8.27L24.38 8.27Q23.83 7.63 22.82 7.63L22.82 7.63L22.82 7.63Q21.81 7.63 21.26 8.27L21.26 8.27L21.26 8.27Q20.71 8.92 20.71 10.08L20.71 10.08L20.71 10.08Q20.71 11.24 21.26 11.89L21.26 11.89L21.26 11.89Q21.81 12.53 22.82 12.53L22.82 12.53ZM30.59 13.71L30.59 13.71Q29.72 13.71 28.83 13.52L28.83 13.52L28.83 13.52Q27.93 13.33 27.38 13.08L27.38 13.08L27.57 11.66L27.57 11.66Q28.27 12.00 29.15 12.25L29.15 12.25L29.15 12.25Q30.03 12.50 30.90 12.50L30.90 12.50L30.90 12.50Q31.88 12.50 32.42 12.14L32.42 12.14L32.42 12.14Q32.96 11.79 32.96 11.07L32.96 11.07L32.96 11.07Q32.96 10.54 32.68 10.18L32.68 10.18L32.68 10.18Q32.41 9.83 31.88 9.58L31.88 9.58L31.88 9.58Q31.36 9.34 30.42 9.06L30.42 9.06L30.42 9.06Q29.47 8.78 28.84 8.46L28.84 8.46L28.84 8.46Q28.21 8.13 27.82 7.57L27.82 7.57L27.82 7.57Q27.44 7.01 27.44 6.16L27.44 6.16L27.44 6.16Q27.44 4.97 28.36 4.24L28.36 4.24L28.36 4.24Q29.27 3.51 30.94 3.51L30.94 3.51L30.94 3.51Q31.84 3.51 32.64 3.71L32.64 3.71L32.64 3.71Q33.45 3.91 34.05 4.19L34.05 4.19L33.91 5.60L33.91 5.60Q33.12 5.14 32.40 4.93L32.40 4.93L32.40 4.93Q31.67 4.72 30.88 4.72L30.88 4.72L30.88 4.72Q29.97 4.72 29.43 5.05L29.43 5.05L29.43 5.05Q28.90 5.39 28.90 6.09L28.90 6.09L28.90 6.09Q28.90 6.57 29.14 6.87L29.14 6.87L29.14 6.87Q29.39 7.18 29.85 7.40L29.85 7.40L29.85 7.40Q30.31 7.62 31.14 7.87L31.14 7.87L31.14 7.87Q32.79 8.37 33.60 9.06L33.60 9.06L33.60 9.06Q34.41 9.76 34.41 10.98L34.41 10.98L34.41 10.98Q34.41 12.26 33.45 12.98L33.45 12.98L33.45 12.98Q32.48 13.71 30.59 13.71L30.59 13.71ZM37.46 13.65L37.46 13.65Q36.54 13.65 36.11 13.17L36.11 13.17L36.11 13.17Q35.69 12.70 35.69 12.00L35.69 12.00L35.69 3.01L36.95 3.01L36.95 11.27L36.95 11.27Q36.95 11.89 37.02 12.17L37.02 12.17L37.02 12.17Q37.10 12.45 37.32 12.54L37.32 12.54L37.32 12.54Q37.55 12.64 38.05 12.64L38.05 12.64L37.87 13.65L37.46 13.65ZM42.29 13.65L42.29 13.65Q41.12 13.65 40.28 13.17L40.28 13.17L40.28 13.17Q39.45 12.68 39.02 11.86L39.02 11.86L39.02 11.86Q38.58 11.03 38.58 10.02L38.58 10.02L38.58 10.02Q38.58 9.06 38.98 8.25L38.98 8.25L38.98 8.25Q39.38 7.45 40.14 6.98L40.14 6.98L40.14 6.98Q40.91 6.51 41.94 6.51L41.94 6.51L41.94 6.51Q43.26 6.51 44.08 7.28L44.08 7.28L44.08 7.28Q44.90 8.05 44.90 9.41L44.90 9.41L44.90 9.41Q44.90 9.76 44.84 10.08L44.84 10.08L39.87 10.08L39.87 10.08Q40.00 11.41 40.68 11.97L40.68 11.97L40.68 11.97Q41.37 12.53 42.45 12.53L42.45 12.53L42.45 12.53Q43.53 12.53 44.42 12.12L44.42 12.12L44.59 13.12L44.59 13.12Q43.40 13.65 42.29 13.65L42.29 13.65ZM39.98 9.21L43.60 9.21L43.60 9.21Q43.60 8.47 43.18 8.05L43.18 8.05L43.18 8.05Q42.76 7.63 41.92 7.63L41.92 7.63L41.92 7.63Q41.10 7.63 40.64 8.03L40.64 8.03L40.64 8.03Q40.18 8.43 39.98 9.21L39.98 9.21ZM49.46 13.65L49.46 13.65Q48.29 13.65 47.45 13.17L47.45 13.17L47.45 13.17Q46.62 12.68 46.19 11.86L46.19 11.86L46.19 11.86Q45.75 11.03 45.75 10.02L45.75 10.02L45.75 10.02Q45.75 9.06 46.15 8.25L46.15 8.25L46.15 8.25Q46.55 7.45 47.31 6.98L47.31 6.98L47.31 6.98Q48.08 6.51 49.11 6.51L49.11 6.51L49.11 6.51Q50.43 6.51 51.25 7.28L51.25 7.28L51.25 7.28Q52.07 8.05 52.07 9.41L52.07 9.41L52.07 9.41Q52.07 9.76 52.01 10.08L52.01 10.08L47.04 10.08L47.04 10.08Q47.17 11.41 47.85 11.97L47.85 11.97L47.85 11.97Q48.54 12.53 49.62 12.53L49.62 12.53L49.62 12.53Q50.69 12.53 51.59 12.12L51.59 12.12L51.76 13.12L51.76 13.12Q50.57 13.65 49.46 13.65L49.46 13.65ZM47.15 9.21L50.76 9.21L50.76 9.21Q50.76 8.47 50.34 8.05L50.34 8.05L50.34 8.05Q49.92 7.63 49.08 7.63L49.08 7.63L49.08 7.63Q48.27 7.63 47.81 8.03L47.81 8.03L47.81 8.03Q47.35 8.43 47.15 9.21L47.15 9.21ZM56.83 6.51L56.83 6.51Q57.74 6.51 58.41 6.98L58.41 6.98L58.41 6.98Q59.09 7.45 59.46 8.26L59.46 8.26L59.46 8.26Q59.82 9.07 59.82 10.08L59.82 10.08L59.82 10.08Q59.82 11.10 59.48 11.91L59.48 11.91L59.48 11.91Q59.14 12.71 58.46 13.18L58.46 13.18L58.46 13.18Q57.79 13.65 56.83 13.65L56.83 13.65L56.83 13.65Q56.11 13.65 55.52 13.40L55.52 13.40L55.52 13.40Q54.94 13.15 54.60 12.67L54.60 12.67L54.60 16.90L53.34 16.90L53.34 6.65L54.32 6.65L54.46 7.60L54.46 7.60Q55.33 6.51 56.83 6.51L56.83 6.51ZM56.59 12.53L56.59 12.53Q57.50 12.53 58.02 11.88L58.02 11.88L58.02 11.88Q58.53 11.23 58.53 10.08L58.53 10.08L58.53 10.08Q58.53 8.93 58.02 8.28L58.02 8.28L58.02 8.28Q57.50 7.63 56.59 7.63L56.59 7.63L56.59 7.63Q55.69 7.63 55.11 8.26L55.11 8.26L55.11 8.26Q54.53 8.89 54.53 10.08L54.53 10.08L54.53 10.08Q54.53 11.31 55.10 11.92L55.10 11.92L55.10 11.92Q55.68 12.53 56.59 12.53L56.59 12.53Z"></path></g><defs data-v-fde0c5aa=""><!----></defs><g data-v-fde0c5aa="" id="0a1ac099-325f-4385-8497-65bd3f5bf201" stroke="none" fill="#ffffff" transform="matrix(1.472289800643921,0,0,1.472289800643921,76.38550865161021,40.0000002243667)"><path d="M98.358 68.041c-1.014.835-2.41 1.353-3.947 1.353H36.503c-3.072 0-5.589-2.069-5.589-4.596v-7.372H16.797c-.331-2.368-1.118-5.318-2.948-7.893-2.907-4.091-7.576-6.021-9.593-6.699V31.895a2.128 2.128 0 0 0-4.256 0v57.444a2.128 2.128 0 0 0 4.256 0V73.426a6.306 6.306 0 0 0 3.461 1.02h86.694c.461 0 .903-.06 1.334-.147V89.34a2.127 2.127 0 1 0 4.255 0V70.191h-.042c.011-.114.042-.225.042-.341v-3.446a4.95 4.95 0 0 1-1.642 1.637zM4.256 58.446v-7.972c.474 1.46 1.152 2.962 2.142 4.354a15.492 15.492 0 0 0 2.354 2.597H7.717a6.307 6.307 0 0 0-3.461 1.021z"></path><circle cx="22.605" cy="47.85" r="7.447"></circle><path d="M95.404 45.72H39.148a4.608 4.608 0 0 0-4.596 4.596v10.669a4.608 4.608 0 0 0 4.596 4.596h56.256A4.609 4.609 0 0 0 100 60.985V50.316a4.608 4.608 0 0 0-4.596-4.596zM32.678 27.156a3.05 3.05 0 0 0 1.555-.437 3.065 3.065 0 0 0 2.51 1.309 3.068 3.068 0 0 0 2.605-1.457c.503.364 1.12.584 1.791.584a3.077 3.077 0 0 0 3.075-3.077c0-.347-.068-.671-.175-.983.516-.548.835-1.28.835-2.092 0-1.7-1.379-3.077-3.079-3.077-.704 0-1.346.248-1.865.648a3.05 3.05 0 0 0-1.87-.648 3.05 3.05 0 0 0-1.812.603 3.054 3.054 0 0 0-1.812-.603 3.079 3.079 0 0 0-3.079 3.077c0 .1.021.193.029.293a3.066 3.066 0 0 0-1.786 2.782c0 1.7 1.379 3.078 3.078 3.078zM23.429 36.948c.353 0 .662-.126.943-.297.33.482.859.818 1.487.818.669 0 1.23-.376 1.552-.91.306.229.667.389 1.079.389 1.014 0 1.84-.825 1.84-1.839 0-.208-.056-.396-.118-.582.313-.328.511-.769.511-1.259a1.841 1.841 0 0 0-1.84-1.841c-.429 0-.805.17-1.116.416-.313-.245-.689-.416-1.118-.416-.415 0-.776.162-1.084.395-.308-.233-.671-.395-1.085-.395a1.842 1.842 0 0 0-1.841 1.841c0 .061.029.112.035.17a1.832 1.832 0 0 0-1.086 1.67c0 1.015.824 1.84 1.841 1.84zM48.236 18.743c1.157 0 2.227-.337 3.158-.885a6.225 6.225 0 0 0 5.099 2.653c2.235 0 4.185-1.185 5.287-2.953a6.202 6.202 0 0 0 3.637 1.185c1.817 0 3.442-.79 4.583-2.03-.061.011-.094.05-.168.05h-3.65c-.256 0-.449-.058-.576-.168a.583.583 0 0 1-.188-.459c0-.116.043-.23.133-.349.089-.117.271-.331.553-.645.297-.328.564-.625.808-.893l.674-.748c.205-.23.378-.428.515-.588.138-.16.245-.301.328-.414h-2.003c-.278 0-.485-.025-.627-.075s-.212-.179-.212-.391c0-.154.052-.278.158-.37.107-.091.26-.137.457-.137h3.096c.284 0 .505.042.658.125.152.083.229.235.229.453a.744.744 0 0 1-.144.414c-.037.05-.085.11-.147.181-.062.071-.139.154-.23.254l-2.468 2.759h2.639c.216 0 .376.05.486.15.085.081.111.193.128.312a6.203 6.203 0 0 0 1.218-3.678 6.17 6.17 0 0 0-.355-1.995 6.208 6.208 0 0 0 1.693-4.253A6.25 6.25 0 0 0 66.757 0c-1.436 0-2.74.503-3.794 1.313C61.907.503 60.603 0 59.169 0a6.2 6.2 0 0 0-3.682 1.222A6.198 6.198 0 0 0 51.806 0a6.248 6.248 0 0 0-6.248 6.248c0 .202.04.393.061.592-2.14.993-3.63 3.142-3.63 5.655a6.246 6.246 0 0 0 6.247 6.248zm8.718-3.434c.133-.175.407-.495.822-.96l1.205-1.33c.36-.399.694-.769 1.002-1.114.31-.347.565-.64.769-.881.204-.239.366-.445.49-.615h-2.985c-.413 0-.723-.037-.935-.112-.21-.073-.316-.266-.316-.582a.69.69 0 0 1 .239-.551c.158-.137.387-.206.682-.206h4.608c.428 0 .756.062.984.187.227.125.341.349.341.673 0 .108-.022.22-.066.334s-.094.21-.147.285-.127.162-.221.266a9.074 9.074 0 0 1-.347.378l-3.676 4.114h3.934c.32 0 .561.075.723.225.162.149.241.34.241.578a.696.696 0 0 1-.239.548c-.159.146-.4.216-.725.216h-5.439c-.385 0-.669-.083-.858-.249-.188-.17-.282-.397-.282-.686a.847.847 0 0 1 .196-.518zm-10.135-.636c.168-.22.517-.63 1.049-1.222.563-.627 1.074-1.193 1.535-1.7.46-.507.886-.98 1.28-1.421.395-.441.719-.814.98-1.122.258-.306.468-.569.623-.788h-3.81c-.524 0-.923-.048-1.191-.139-.268-.096-.402-.341-.402-.744 0-.293.102-.528.305-.703.204-.174.493-.262.869-.262h5.882c.542 0 .962.079 1.253.239.291.16.437.446.437.858a1.2 1.2 0 0 1-.086.428 1.563 1.563 0 0 1-.188.362 5.98 5.98 0 0 1-.28.341c-.119.133-.267.295-.441.482l-4.691 5.246h5.021c.405 0 .712.094.92.285a.967.967 0 0 1 .308.738c0 .289-.1.521-.304.704-.203.181-.511.27-.924.27H48.02c-.49 0-.854-.104-1.093-.318-.24-.214-.361-.505-.361-.873-.001-.217.082-.437.253-.661z"></path></g><!----></svg>