<svg data-v-423bf9ae="" xmlns="http://www.w3.org/2000/svg" viewBox="0 0 254.73003806458345 60" class="font"><!----><!----><!----><g data-v-423bf9ae="" id="2d0279e3-e6f0-49b5-b37b-3751368ef445" fill="black" transform="matrix(4.31965446472168,0,0,4.31965446472168,-3.671701669692993,-13.00216007232666)"><path d="M0.85 5.11L0.85 3.71L2.11 3.71L2.11 5.11L0.85 5.11ZM0.85 13.51L0.85 6.65L2.11 6.65L2.11 13.51L0.85 13.51ZM7.21 6.51L7.21 6.51Q10.01 6.51 10.01 9.73L10.01 9.73L10.01 13.51L8.75 13.51L8.75 9.73L8.75 9.73Q8.75 8.62 8.34 8.13L8.34 8.13L8.34 8.13Q7.92 7.63 6.96 7.63L6.96 7.63L6.96 7.63Q6.34 7.63 5.84 7.85L5.84 7.85L5.84 7.85Q5.33 8.08 5.08 8.53L5.08 8.53L5.08 13.51L3.82 13.51L3.82 6.65L4.80 6.65L4.94 7.38L4.94 7.38Q5.49 6.89 6.04 6.70L6.04 6.70L6.04 6.70Q6.59 6.51 7.21 6.51L7.21 6.51ZM14.71 13.71L14.71 13.71Q13.85 13.71 12.95 13.52L12.95 13.52L12.95 13.52Q12.05 13.33 11.51 13.08L11.51 13.08L11.69 11.66L11.69 11.66Q12.39 12.00 13.27 12.25L13.27 12.25L13.27 12.25Q14.15 12.50 15.02 12.50L15.02 12.50L15.02 12.50Q16.00 12.50 16.54 12.14L16.54 12.14L16.54 12.14Q17.08 11.79 17.08 11.07L17.08 11.07L17.08 11.07Q17.08 10.54 16.81 10.18L16.81 10.18L16.81 10.18Q16.53 9.83 16.01 9.58L16.01 9.58L16.01 9.58Q15.48 9.34 14.55 9.06L14.55 9.06L14.55 9.06Q13.59 8.78 12.96 8.46L12.96 8.46L12.96 8.46Q12.33 8.13 11.95 7.57L11.95 7.57L11.95 7.57Q11.56 7.01 11.56 6.16L11.56 6.16L11.56 6.16Q11.56 4.97 12.48 4.24L12.48 4.24L12.48 4.24Q13.40 3.51 15.06 3.51L15.06 3.51L15.06 3.51Q15.96 3.51 16.77 3.71L16.77 3.71L16.77 3.71Q17.57 3.91 18.17 4.19L18.17 4.19L18.03 5.60L18.03 5.60Q17.25 5.14 16.52 4.93L16.52 4.93L16.52 4.93Q15.79 4.72 15.01 4.72L15.01 4.72L15.01 4.72Q14.10 4.72 13.56 5.05L13.56 5.05L13.56 5.05Q13.02 5.39 13.02 6.09L13.02 6.09L13.02 6.09Q13.02 6.57 13.27 6.87L13.27 6.87L13.27 6.87Q13.51 7.18 13.97 7.40L13.97 7.40L13.97 7.40Q14.43 7.62 15.26 7.87L15.26 7.87L15.26 7.87Q16.91 8.37 17.72 9.06L17.72 9.06L17.72 9.06Q18.54 9.76 18.54 10.98L18.54 10.98L18.54 10.98Q18.54 12.26 17.57 12.98L17.57 12.98L17.57 12.98Q16.60 13.71 14.71 13.71L14.71 13.71ZM22.82 13.65L22.82 13.65Q21.77 13.65 21 13.18L21 13.18L21 13.18Q20.23 12.71 19.82 11.90L19.82 11.90L19.82 11.90Q19.42 11.09 19.42 10.08L19.42 10.08L19.42 10.08Q19.42 9.07 19.82 8.26L19.82 8.26L19.82 8.26Q20.23 7.45 21 6.98L21 6.98L21 6.98Q21.77 6.51 22.82 6.51L22.82 6.51L22.82 6.51Q23.86 6.51 24.63 6.98L24.63 6.98L24.63 6.98Q25.41 7.45 25.82 8.26L25.82 8.26L25.82 8.26Q26.22 9.07 26.22 10.08L26.22 10.08L26.22 10.08Q26.22 11.09 25.82 11.90L25.82 11.90L25.82 11.90Q25.41 12.71 24.63 13.18L24.63 13.18L24.63 13.18Q23.86 13.65 22.82 13.65L22.82 13.65ZM22.82 12.53L22.82 12.53Q23.83 12.53 24.38 11.89L24.38 11.89L24.38 11.89Q24.93 11.24 24.93 10.08L24.93 10.08L24.93 10.08Q24.93 8.92 24.38 8.27L24.38 8.27L24.38 8.27Q23.83 7.63 22.82 7.63L22.82 7.63L22.82 7.63Q21.81 7.63 21.26 8.27L21.26 8.27L21.26 8.27Q20.71 8.92 20.71 10.08L20.71 10.08L20.71 10.08Q20.71 11.24 21.26 11.89L21.26 11.89L21.26 11.89Q21.81 12.53 22.82 12.53L22.82 12.53ZM30.59 13.71L30.59 13.71Q29.72 13.71 28.83 13.52L28.83 13.52L28.83 13.52Q27.93 13.33 27.38 13.08L27.38 13.08L27.57 11.66L27.57 11.66Q28.27 12.00 29.15 12.25L29.15 12.25L29.15 12.25Q30.03 12.50 30.90 12.50L30.90 12.50L30.90 12.50Q31.88 12.50 32.42 12.14L32.42 12.14L32.42 12.14Q32.96 11.79 32.96 11.07L32.96 11.07L32.96 11.07Q32.96 10.54 32.68 10.18L32.68 10.18L32.68 10.18Q32.41 9.83 31.88 9.58L31.88 9.58L31.88 9.58Q31.36 9.34 30.42 9.06L30.42 9.06L30.42 9.06Q29.47 8.78 28.84 8.46L28.84 8.46L28.84 8.46Q28.21 8.13 27.82 7.57L27.82 7.57L27.82 7.57Q27.44 7.01 27.44 6.16L27.44 6.16L27.44 6.16Q27.44 4.97 28.36 4.24L28.36 4.24L28.36 4.24Q29.27 3.51 30.94 3.51L30.94 3.51L30.94 3.51Q31.84 3.51 32.64 3.71L32.64 3.71L32.64 3.71Q33.45 3.91 34.05 4.19L34.05 4.19L33.91 5.60L33.91 5.60Q33.12 5.14 32.40 4.93L32.40 4.93L32.40 4.93Q31.67 4.72 30.88 4.72L30.88 4.72L30.88 4.72Q29.97 4.72 29.43 5.05L29.43 5.05L29.43 5.05Q28.90 5.39 28.90 6.09L28.90 6.09L28.90 6.09Q28.90 6.57 29.14 6.87L29.14 6.87L29.14 6.87Q29.39 7.18 29.85 7.40L29.85 7.40L29.85 7.40Q30.31 7.62 31.14 7.87L31.14 7.87L31.14 7.87Q32.79 8.37 33.60 9.06L33.60 9.06L33.60 9.06Q34.41 9.76 34.41 10.98L34.41 10.98L34.41 10.98Q34.41 12.26 33.45 12.98L33.45 12.98L33.45 12.98Q32.48 13.71 30.59 13.71L30.59 13.71ZM37.46 13.65L37.46 13.65Q36.54 13.65 36.11 13.17L36.11 13.17L36.11 13.17Q35.69 12.70 35.69 12.00L35.69 12.00L35.69 3.01L36.95 3.01L36.95 11.27L36.95 11.27Q36.95 11.89 37.02 12.17L37.02 12.17L37.02 12.17Q37.10 12.45 37.32 12.54L37.32 12.54L37.32 12.54Q37.55 12.64 38.05 12.64L38.05 12.64L37.87 13.65L37.46 13.65ZM42.29 13.65L42.29 13.65Q41.12 13.65 40.28 13.17L40.28 13.17L40.28 13.17Q39.45 12.68 39.02 11.86L39.02 11.86L39.02 11.86Q38.58 11.03 38.58 10.02L38.58 10.02L38.58 10.02Q38.58 9.06 38.98 8.25L38.98 8.25L38.98 8.25Q39.38 7.45 40.14 6.98L40.14 6.98L40.14 6.98Q40.91 6.51 41.94 6.51L41.94 6.51L41.94 6.51Q43.26 6.51 44.08 7.28L44.08 7.28L44.08 7.28Q44.90 8.05 44.90 9.41L44.90 9.41L44.90 9.41Q44.90 9.76 44.84 10.08L44.84 10.08L39.87 10.08L39.87 10.08Q40.00 11.41 40.68 11.97L40.68 11.97L40.68 11.97Q41.37 12.53 42.45 12.53L42.45 12.53L42.45 12.53Q43.53 12.53 44.42 12.12L44.42 12.12L44.59 13.12L44.59 13.12Q43.40 13.65 42.29 13.65L42.29 13.65ZM39.98 9.21L43.60 9.21L43.60 9.21Q43.60 8.47 43.18 8.05L43.18 8.05L43.18 8.05Q42.76 7.63 41.92 7.63L41.92 7.63L41.92 7.63Q41.10 7.63 40.64 8.03L40.64 8.03L40.64 8.03Q40.18 8.43 39.98 9.21L39.98 9.21ZM49.46 13.65L49.46 13.65Q48.29 13.65 47.45 13.17L47.45 13.17L47.45 13.17Q46.62 12.68 46.19 11.86L46.19 11.86L46.19 11.86Q45.75 11.03 45.75 10.02L45.75 10.02L45.75 10.02Q45.75 9.06 46.15 8.25L46.15 8.25L46.15 8.25Q46.55 7.45 47.31 6.98L47.31 6.98L47.31 6.98Q48.08 6.51 49.11 6.51L49.11 6.51L49.11 6.51Q50.43 6.51 51.25 7.28L51.25 7.28L51.25 7.28Q52.07 8.05 52.07 9.41L52.07 9.41L52.07 9.41Q52.07 9.76 52.01 10.08L52.01 10.08L47.04 10.08L47.04 10.08Q47.17 11.41 47.85 11.97L47.85 11.97L47.85 11.97Q48.54 12.53 49.62 12.53L49.62 12.53L49.62 12.53Q50.69 12.53 51.59 12.12L51.59 12.12L51.76 13.12L51.76 13.12Q50.57 13.65 49.46 13.65L49.46 13.65ZM47.15 9.21L50.76 9.21L50.76 9.21Q50.76 8.47 50.34 8.05L50.34 8.05L50.34 8.05Q49.92 7.63 49.08 7.63L49.08 7.63L49.08 7.63Q48.27 7.63 47.81 8.03L47.81 8.03L47.81 8.03Q47.35 8.43 47.15 9.21L47.15 9.21ZM56.83 6.51L56.83 6.51Q57.74 6.51 58.41 6.98L58.41 6.98L58.41 6.98Q59.09 7.45 59.46 8.26L59.46 8.26L59.46 8.26Q59.82 9.07 59.82 10.08L59.82 10.08L59.82 10.08Q59.82 11.10 59.48 11.91L59.48 11.91L59.48 11.91Q59.14 12.71 58.46 13.18L58.46 13.18L58.46 13.18Q57.79 13.65 56.83 13.65L56.83 13.65L56.83 13.65Q56.11 13.65 55.52 13.40L55.52 13.40L55.52 13.40Q54.94 13.15 54.60 12.67L54.60 12.67L54.60 16.90L53.34 16.90L53.34 6.65L54.32 6.65L54.46 7.60L54.46 7.60Q55.33 6.51 56.83 6.51L56.83 6.51ZM56.59 12.53L56.59 12.53Q57.50 12.53 58.02 11.88L58.02 11.88L58.02 11.88Q58.53 11.23 58.53 10.08L58.53 10.08L58.53 10.08Q58.53 8.93 58.02 8.28L58.02 8.28L58.02 8.28Q57.50 7.63 56.59 7.63L56.59 7.63L56.59 7.63Q55.69 7.63 55.11 8.26L55.11 8.26L55.11 8.26Q54.53 8.89 54.53 10.08L54.53 10.08L54.53 10.08Q54.53 11.31 55.10 11.92L55.10 11.92L55.10 11.92Q55.68 12.53 56.59 12.53L56.59 12.53Z"></path></g><!----><!----></svg>